<?xml version="1.0" encoding="UTF-8" standalone="no"?>
<svg width="314px" height="203px" viewBox="0 0 314 203" version="1.1" xmlns="http://www.w3.org/2000/svg" xmlns:xlink="http://www.w3.org/1999/xlink" xmlns:sketch="http://www.bohemiancoding.com/sketch/ns">
    <!-- Generator: Sketch 3.4.2 (15855) - http://www.bohemiancoding.com/sketch -->
    <title>Xamarin logo</title>
    <desc>Created with Sketch.</desc>
    <defs></defs>
    <g id="Xamarin-logo" stroke="none" stroke-width="1" fill="none" fill-rule="evenodd" sketch:type="MSPage">
        <g sketch:type="MSArtboardGroup" id="Logo" fill="#3498DB">
            <path d="M53.8303433,177.22472 L43.5142071,157.430391 L32.9625929,177.22472 L21.6163318,177.22472 L37.703693,151.677943 L23.2260184,126.288443 L34.7293065,126.288443 L44.1226725,145.578061 L54.3014254,126.288443 L64.8232613,126.288443 L49.9529555,151.520655 L65.0587398,177.22472 L53.8303433,177.22472 Z M90.6157911,177.22472 L90.6157911,171.680992 L90.4586393,171.680992 C87.6580463,176.0321 83.6928235,178.207647 78.56272,178.207647 C74.6105087,178.207647 71.4958617,177.132993 69.2187766,174.983648 C66.941692,172.808088 65.8030871,169.898603 65.8030871,166.255219 C65.8030871,158.44418 70.1872164,154.001346 78.9553511,152.926642 L90.6942422,151.314636 C90.6942422,145.836459 88.1554038,143.097382 83.0777258,143.097332 C78.2356519,143.097382 73.7860844,144.591422 69.7291469,147.579513 L69.7291469,139.558781 C71.2472448,138.641416 73.4196036,137.815752 76.2463469,137.081777 C79.0993654,136.347902 81.6905045,135.980946 84.0200151,135.980896 C94.3846989,135.980946 99.5669784,141.223254 99.5671032,151.70782 L99.5671032,177.22472 L90.6156663,177.22472 L90.6157911,177.22472 Z M82.0176974,158.784921 C79.3218307,159.125688 77.4242392,159.794089 76.3249228,160.790098 C75.2517568,161.75993 74.7152362,163.267102 74.7152362,165.311601 C74.7152362,166.989131 75.3303327,168.365255 76.560527,169.439921 C77.7905952,170.48836 79.4002818,171.012604 81.3894632,171.012604 C84.0853286,171.012604 86.310113,170.082081 88.0638151,168.221073 C89.8173911,166.360053 90.6942422,164.040349 90.6942422,161.261913 L90.6942422,157.644718 L82.0176974,158.784921 Z M157.452278,177.22472 L157.452278,154.499326 C157.452152,150.75112 156.86333,147.972696 155.685563,146.164093 C154.53382,144.329312 152.466064,143.411896 149.482418,143.411858 C147.100482,143.411896 145.098289,144.512777 143.475588,146.714514 C141.852764,148.890112 141.041352,151.524367 141.041352,154.617292 L141.041352,177.22472 L131.9723,177.22472 L131.9723,153.712997 C131.972176,146.845601 129.341747,143.411896 124.080892,143.411858 C121.620629,143.411896 119.592161,144.447253 117.995487,146.517941 C116.425087,148.58868 115.639951,151.288447 115.639951,154.617292 L115.639951,177.22472 L106.570775,177.22472 L106.570775,136.963848 L115.639951,136.963848 L115.639951,143.175976 L115.796978,143.175976 C118.702297,138.379306 122.942412,135.980946 128.517448,135.980896 C131.187038,135.980946 133.542699,136.688656 135.584306,138.104051 C137.651937,139.493282 139.104597,141.419827 139.94216,143.883674 C143.004506,138.615201 147.506376,135.980946 153.447766,135.980896 C162.189624,135.980946 166.560617,141.432947 166.560742,152.336911 L166.560742,177.22472 L157.452278,177.22472 Z M196.711123,177.22472 L196.711123,171.680992 L196.553974,171.680992 C193.75338,176.0321 189.788029,178.207647 184.658049,178.207647 C180.705843,178.207647 177.591196,177.132993 175.314111,174.983648 C173.037026,172.808088 171.898422,169.898603 171.898422,166.255219 C171.898422,158.44418 176.282551,154.001346 185.050689,152.926642 L196.789578,151.314636 C196.789578,145.836459 194.25074,143.097382 189.173063,143.097332 C184.330864,143.097382 179.881419,144.591422 175.824481,147.579513 L175.824481,139.558781 C177.342579,138.641416 179.514938,137.815752 182.341676,137.081777 C185.194574,136.347902 187.785842,135.980946 190.115227,135.980896 C200.480033,135.980946 205.662317,141.223254 205.662443,151.70782 L205.662443,177.22472 L196.710997,177.22472 L196.711123,177.22472 Z M188.113027,158.784921 C185.417039,159.125688 183.519571,159.794089 182.420257,160.790098 C181.347091,161.75993 180.810571,163.267102 180.810571,165.311601 C180.810571,166.989131 181.425667,168.365255 182.655862,169.439921 C183.885934,170.48836 185.49562,171.012604 187.484795,171.012604 C190.180669,171.012604 192.405449,170.082081 194.159146,168.221073 C195.912729,166.360053 196.789578,164.040349 196.789578,161.261913 L196.789578,157.644718 L188.113027,158.784921 Z M236.041424,145.810219 C234.549596,144.892841 232.795899,144.434158 230.78056,144.434133 C228.163153,144.434158 226.030081,145.561254 224.381104,147.815408 C222.758404,150.069625 221.946985,153.005324 221.946985,156.622481 L221.946985,177.22472 L212.877819,177.22472 L212.877819,136.963848 L221.946985,136.963848 L221.946985,144.787969 L222.104147,144.787969 C224.040893,139.100124 227.469731,136.256176 232.390372,136.256125 C233.98692,136.256176 235.203979,136.439616 236.04155,136.806585 L236.04155,145.810219 L236.041424,145.810219 Z M245.069811,127.960202 C243.525554,127.960227 242.216914,127.462222 241.143739,126.466125 C240.070703,125.443951 239.534179,124.198876 239.534179,122.730988 C239.534179,121.210772 240.070703,119.939508 241.143739,118.917233 C242.216914,117.895009 243.525554,117.383897 245.069811,117.383834 C246.640207,117.383897 247.961987,117.908142 249.035149,118.956543 C250.108198,119.97883 250.644836,121.236987 250.644836,122.730988 C250.644836,124.198876 250.108198,125.443951 249.035149,126.466125 C247.961987,127.462222 246.640207,127.960227 245.069811,127.960202 Z M240.437065,177.22472 L240.437065,136.963848 L249.506231,136.963848 L249.506231,177.22472 L240.437065,177.22472 Z M283.782371,177.22472 L283.782371,154.617292 C283.782371,147.147045 281.099523,143.411896 275.734064,143.411858 C273.038077,143.411896 270.77412,144.447253 268.941968,146.517941 C267.135968,148.562465 266.232968,151.170518 266.232968,154.342062 L266.232968,177.22472 L257.163789,177.22472 L257.163789,136.963848 L266.232968,136.963848 L266.232968,143.411858 L266.390117,143.411858 C269.321596,138.457925 273.666308,135.980946 279.42452,135.980896 C288.375953,135.980946 292.85155,141.485339 292.851676,152.494174 L292.851676,177.22472 L283.782497,177.22472 L283.782371,177.22472 Z M140.047444,24 C137.292643,24.0058575 134.596002,25.5737917 133.209217,27.965729 L111.640224,65.5342563 C110.275034,67.9325978 110.275034,71.0674022 111.640224,73.4657437 L133.209217,111.034271 C134.596148,113.426228 137.292643,114.994582 140.047444,115 L183.185278,115 C185.94008,114.994143 188.636573,113.426228 190.023504,111.034271 L211.592493,73.4657437 C212.957682,71.0674022 212.957541,67.9325978 211.592493,65.5342563 L190.023504,27.965729 C188.636573,25.5737917 185.94008,24.0054182 183.185278,24 L140.047444,24 Z M140.386646,46.0043931 C140.445905,45.9985356 140.508058,45.9985356 140.567502,46.0043931 L148.008129,46.0043931 C148.337492,46.0112269 148.656976,46.2020836 148.821453,46.4887494 L161.443584,69.0419888 C161.507117,69.153496 161.548054,69.2777334 161.563588,69.4052511 C161.579131,69.2777042 161.620029,69.1534569 161.683592,69.0419888 L174.275512,46.4887494 C174.445208,46.193395 174.779658,46.0014839 175.118908,46.0043931 L182.559539,46.0043931 C183.218414,46.0102506 183.71183,46.8423566 183.403075,47.4272177 L171.082355,69.5263548 L183.403075,91.5952185 C183.741055,92.1834379 183.235497,93.0541252 182.559539,93.0483067 L175.118908,93.0483067 C174.773729,93.045378 174.437302,92.8401899 174.275512,92.533677 L161.683592,69.9804376 C161.620059,69.8689304 161.579121,69.7446832 161.563588,69.6171753 C161.548044,69.7447125 161.507146,69.8689792 161.443584,69.9804376 L148.821453,92.533677 C148.664466,92.8315209 148.343282,93.0347466 148.008129,93.0483067 L140.567502,93.0483067 C139.891542,93.0541642 139.386122,92.1834379 139.724102,91.5952185 L152.044818,69.5263548 L139.724102,47.4272177 C139.428759,46.8935999 139.789092,46.1182921 140.386646,46.0043931 L140.386646,46.0043931 Z" sketch:type="MSShapeGroup"></path>
        </g>
    </g>
</svg>