<?xml version="1.0" standalone="no"?><!DOCTYPE svg PUBLIC "-//W3C//DTD SVG 1.1//EN" "http://www.w3.org/Graphics/SVG/1.1/DTD/svg11.dtd"><svg xmlns="http://www.w3.org/2000/svg" version="1.1" width="882.862" height="1296.735" xmlns:xlink="http://www.w3.org/1999/xlink" xlink="http://www.w3.org/1999/xlink" style="position:relative;overflow:hidden;" viewBox="6.74 37.108 882.862 1296.735"><defs><filter id="f578a3c6-5bc6-41a8-8f6a-c44d70277f60" x="-0.5" y="-0.5" width="2" height="2"><feFlood flood-color="#000" flood-opacity="0.6" result="flood"/><feComposite in="flood" in2="SourceAlpha" operator="in" result="mask"/><feGaussianBlur in="mask" stdDeviation="2"/><feOffset dx="1.25" dy="1.25" result="oEffect0"/><feMerge><feMergeNode in="oEffect0"/><feMergeNode in="SourceGraphic"/></feMerge></filter><filter id="f9935239-35f3-445a-99f3-8b546ffe6517" x="-0.5" y="-0.5" width="2" height="2"><feFlood flood-color="#000" flood-opacity="0.6" result="flood"/><feComposite in="flood" in2="SourceAlpha" operator="in" result="mask"/><feGaussianBlur in="mask" stdDeviation="2"/><feOffset dx="0.05" dy="0.05" result="oEffect0"/><feMerge><feMergeNode in="oEffect0"/><feMergeNode in="SourceGraphic"/></feMerge></filter><filter id="7ed8460f-c31a-4618-b169-5f8c8b48f207" x="-0.5" y="-0.5" width="2" height="2"><feFlood flood-color="#000" flood-opacity="0.6" result="flood"/><feComposite in="flood" in2="SourceAlpha" operator="in" result="mask"/><feGaussianBlur in="mask" stdDeviation="2"/><feOffset dx="0.8310016067870848" dy="0.8310016067870848" result="oEffect0"/><feMerge><feMergeNode in="oEffect0"/><feMergeNode in="SourceGraphic"/></feMerge></filter><filter id="84b71f79-4f7d-40e1-8b07-a5bcf1ba5f8b" x="-0.5" y="-0.5" width="2" height="2"><feFlood flood-color="#000" flood-opacity="0.6" result="flood"/><feComposite in="flood" in2="SourceAlpha" operator="in" result="mask"/><feGaussianBlur in="mask" stdDeviation="2"/><feOffset dx="0.8291666666666666" dy="0.8291666666666666" result="oEffect0"/><feMerge><feMergeNode in="oEffect0"/><feMergeNode in="SourceGraphic"/></feMerge></filter></defs><g><g width="154.719" height="0" transform="scale(1,1) translate(207.531,88.04)"><g fill="#545454" stroke="#545454" stroke-opacity="1" transform="scale(1,1) translate(0,0)" filter="url(#f9935239-35f3-445a-99f3-8b546ffe6517)"><path fill="none" stroke-width="1" stroke-dasharray="none" d="M0,0 L0,0 M0,0 L0,0 M154.719,0 L154.719,0 M0,0 L0,0"/><g><g stroke-dasharray="none"><path d="M0,0L-10,0L-10,-10L0,-10z" stroke-width="0" fill="none"/></g></g></g></g><g width="153.719" height="77.03" transform="scale(1,1) translate(207.531,49.608)"><g transform="scale(1,1) translate(0,0)" stroke="#545454" fill="url(#813a88d9-866b-4906-a837-5e906c241a12)" stroke-opacity="1" filter="url(#f578a3c6-5bc6-41a8-8f6a-c44d70277f60)"><linearGradient id="813a88d9-866b-4906-a837-5e906c241a12" x1="76.85947998427201" y1="0" x2="76.85947998427201" y2="77.0302788286815" gradientUnits="userSpaceOnUse"><stop offset="0%" style="stop-color:#DED5B7;stop-opacity:1;"/><stop offset="100%" style="stop-color:#D6CBA6;stop-opacity:1;"/></linearGradient><path d="M38,0 L29.45,0.974 L25.987,1.949 L23.385,2.923 L21.236,3.897 L19.385,4.872 L17.748,5.846 L16.278,6.821 L14.942,7.795 L13.719,8.769 L12.592,9.744 L11.548,10.718 L10.579,11.692 L9.676,12.667 L8.834,13.641 L8.047,14.615 L7.312,15.59 L6.623,16.564 L5.979,17.538 L5.377,18.513 L4.815,19.487 L4.289,20.462 L3.8,21.436 L3.345,22.41 L2.923,23.385 L2.533,24.359 L2.173,25.333 L1.844,26.308 L1.543,27.282 L1.27,28.256 L1.026,29.231 L0.808,30.205 L0.617,31.179 L0.452,32.154 L0.314,33.128 L0.2,34.103 L0.113,35.077 L0.05,36.051 L0.012,37.026 L0,38 L0,39.03 L0.012,40.005 L0.05,40.979 L0.113,41.953 L0.2,42.928 L0.314,43.902 L0.452,44.876 L0.617,45.851 L0.808,46.825 L1.026,47.8 L1.27,48.774 L1.543,49.748 L1.844,50.723 L2.173,51.697 L2.533,52.671 L2.923,53.646 L3.345,54.62 L3.8,55.594 L4.289,56.569 L4.815,57.543 L5.377,58.517 L5.979,59.492 L6.623,60.466 L7.312,61.441 L8.047,62.415 L8.834,63.389 L9.676,64.364 L10.579,65.338 L11.548,66.312 L12.592,67.287 L13.719,68.261 L14.942,69.235 L16.278,70.21 L17.748,71.184 L19.385,72.158 L21.236,73.133 L23.385,74.107 L25.987,75.082 L29.45,76.056 L38,77.03 L115.719,77.03 L124.269,76.056 L127.732,75.082 L130.334,74.107 L132.482,73.133 L134.334,72.158 L135.971,71.184 L137.441,70.21 L138.777,69.235 L140,68.261 L141.127,67.287 L142.171,66.312 L143.14,65.338 L144.042,64.364 L144.885,63.389 L145.672,62.415 L146.407,61.441 L147.096,60.466 L147.74,59.492 L148.342,58.517 L148.904,57.543 L149.43,56.569 L149.919,55.594 L150.374,54.62 L150.796,53.646 L151.186,52.671 L151.546,51.697 L151.875,50.723 L152.176,49.748 L152.449,48.774 L152.693,47.8 L152.911,46.825 L153.102,45.851 L153.267,44.876 L153.405,43.902 L153.519,42.928 L153.606,41.953 L153.669,40.979 L153.706,40.005 L153.719,39.03 L153.719,38 L153.706,37.026 L153.669,36.051 L153.606,35.077 L153.519,34.103 L153.405,33.128 L153.267,32.154 L153.102,31.179 L152.911,30.205 L152.693,29.231 L152.449,28.256 L152.176,27.282 L151.875,26.308 L151.546,25.333 L151.186,24.359 L150.796,23.385 L150.374,22.41 L149.919,21.436 L149.43,20.462 L148.904,19.487 L148.342,18.513 L147.74,17.538 L147.096,16.564 L146.407,15.59 L145.672,14.615 L144.885,13.641 L144.042,12.667 L143.14,11.692 L142.171,10.718 L141.127,9.744 L140,8.769 L138.777,7.795 L137.441,6.821 L135.971,5.846 L134.334,4.872 L132.482,3.897 L130.334,2.923 L127.732,1.949 L124.269,0.974 L115.719,0 L38,0 z" stroke-width="1" stroke-dasharray="none"/></g><g width="103.98861233374399" height="49.7615257971117" transform="scale(1,1) translate(24.865,13.634)"><text width="103.98861233374399" height="46.87499713897705" transform="scale(1,1) translate(0,1.4432643290673255)" xml:space="preserve"><tspan xml:space="preserve" text-rendering="optimizeSpeed" font-size="13.88888888888889" font-weight="normal" font-style="normal" fill="#333333" opacity="1" x="0" text-anchor="start" y="12.5" textLength="103.40139770507812" style="font-family: Arial, Helvetica Neue, Helvetica, sans-serif;">Start of  run-time</tspan><tspan xml:space="preserve" text-rendering="optimizeSpeed" font-size="13.88888888888889" font-weight="normal" font-style="normal" fill="#333333" opacity="1" x="16.498" text-anchor="start" y="28.125" textLength="67.13536071777344" style="font-family: Arial, Helvetica Neue, Helvetica, sans-serif;">permission</tspan><tspan xml:space="preserve" text-rendering="optimizeSpeed" font-size="13.88888888888889" font-weight="normal" font-style="normal" fill="#333333" opacity="1" x="33.858" text-anchor="start" y="43.75" textLength="36.27290344238281" style="font-family: Arial, Helvetica Neue, Helvetica, sans-serif;">check</tspan></text></g></g><g width="150" height="75" transform="scale(1,1) translate(19.24,668.991)"><g stroke="#545454" opacity="1" stroke-width="1" stroke-dasharray="none" width="150" height="75" transform="scale(1,1) translate(0,0)" fill="#74cf37" fill-opacity="1" stroke-opacity="1" filter="url(#f578a3c6-5bc6-41a8-8f6a-c44d70277f60)"><rect width="150" height="75"/></g><g width="145" height="70" transform="scale(1,1) translate(2.5,2.5)"><text width="145" height="15.624999046325684" transform="scale(1,1) translate(0,27.187500476837158)" xml:space="preserve"><tspan xml:space="preserve" text-rendering="optimizeSpeed" font-size="13.88888888888889" font-weight="bold" font-style="normal" fill="#333333" opacity="1" x="15.155" text-anchor="start" y="12.5" textLength="114.69010162353516" style="font-family: Arial, Helvetica Neue, Helvetica, sans-serif;">Call Functionality</tspan></text></g></g><g width="238.938" height="119.469" transform="scale(1,1) translate(441.012,246.856)"><g transform="scale(1,1) translate(0,0)" stroke="#545454" fill="#FADA7A" fill-opacity="1" stroke-opacity="1" filter="url(#f578a3c6-5bc6-41a8-8f6a-c44d70277f60)"><path d="M119.469,0 L238.938,59.735 L119.469,119.469 L0,59.735 L119.469,0 z" stroke-width="1" stroke-dasharray="none"/></g><g width="118.96923105046153" height="59.234615525230765" transform="scale(1,1) translate(59.985,30.117)"><text width="118.96923105046153" height="46.87499713897705" transform="scale(1,1) translate(0,6.179809193126857)" xml:space="preserve"><tspan xml:space="preserve" text-rendering="optimizeSpeed" font-size="13.88888888888889" font-weight="bold" font-style="normal" fill="#333333" opacity="1" x="0" text-anchor="start" y="12.5" textLength="118.85303497314453" style="font-family: Arial, Helvetica Neue, Helvetica, sans-serif;">Have permissions</tspan><tspan xml:space="preserve" text-rendering="optimizeSpeed" font-size="13.88888888888889" font-weight="bold" font-style="normal" fill="#333333" opacity="1" x="15.106" text-anchor="start" y="28.125" textLength="84.89887237548828" style="font-family: Arial, Helvetica Neue, Helvetica, sans-serif;">already been</tspan><tspan xml:space="preserve" text-rendering="optimizeSpeed" font-size="13.88888888888889" font-weight="bold" font-style="normal" fill="#333333" opacity="1" x="29.785" text-anchor="start" y="43.75" textLength="59.39936828613281" style="font-family: Arial, Helvetica Neue, Helvetica, sans-serif;">granted?</tspan></text></g></g><g width="1" height="48.112" transform="scale(1,1) translate(284.391,126.639)"><g transform="scale(1,1) translate(0,0)" fill="#545454" stroke="#545454" stroke-opacity="1" filter="url(#f9935239-35f3-445a-99f3-8b546ffe6517)"><path d="M 0 0 L 0 38.112" fill="none" stroke-width="1" stroke-dasharray="none"/><g><g stroke-dasharray="none"><path d="M5,38.112L0,48.112L-5,38.112z" stroke="none" fill-opacity="1"/></g></g></g></g><g width="23.94" height="15.625" transform="scale(1,1) translate(394.131,195.238)"><g stroke="#545454" opacity="1" stroke-width="0" stroke-dasharray="none" width="23.94" height="15.625" transform="scale(1,1) translate(0,0)" fill="none" stroke-opacity="1"><rect width="23.94" height="15.625"/></g><g width="23.940101623535156" height="15.624999046325684" transform="scale(1,1) translate(0,0)"><text width="23.940101623535156" height="15.624999046325684" transform="scale(1,1) translate(0,0)" xml:space="preserve"><tspan xml:space="preserve" text-rendering="optimizeSpeed" font-size="13.88888888888889" font-weight="bold" font-style="normal" fill="#333333" opacity="1" x="0" text-anchor="start" y="12.5" textLength="23.940101623535156" style="font-family: Arial, Helvetica Neue, Helvetica, sans-serif;">Yes</tspan></text></g></g><g width="18.509" height="15.667" transform="scale(1,1) translate(154.426,195.217)"><g stroke="#545454" opacity="1" stroke-width="0" stroke-dasharray="none" width="18.509" height="15.667" transform="scale(1,1) translate(0,0)" fill="none" stroke-opacity="1"><rect width="18.509" height="15.667"/></g><g width="18.509355545043945" height="15.666666666666666" transform="scale(1,1) translate(0,0)"><text width="18.509355545043945" height="15.624999046325684" transform="scale(1,1) translate(0,0.02083381017049124)" xml:space="preserve"><tspan xml:space="preserve" text-rendering="optimizeSpeed" font-size="13.88888888888889" font-weight="bold" font-style="normal" fill="#333333" opacity="1" x="0" text-anchor="start" y="12.5" textLength="18.509355545043945" style="font-family: Arial, Helvetica Neue, Helvetica, sans-serif;">No</tspan></text></g></g><g width="206.348" height="103.174" transform="scale(1,1) translate(296.727,370.014)"><g transform="scale(1,1) translate(0,0)" stroke="#545454" fill="#FADA7A" fill-opacity="1" stroke-opacity="1" filter="url(#f578a3c6-5bc6-41a8-8f6a-c44d70277f60)"><path d="M103.174,0 L206.348,51.587 L103.174,103.174 L0,51.587 L103.174,0 z" stroke-width="1" stroke-dasharray="none"/></g><g width="102.67382719367743" height="51.08691359683871" transform="scale(1,1) translate(51.837,26.043)"><text width="102.67382719367743" height="46.87499713897705" transform="scale(1,1) translate(0,2.105958228930831)" xml:space="preserve"><tspan xml:space="preserve" text-rendering="optimizeSpeed" font-size="13.88888888888889" font-weight="bold" font-style="normal" fill="#333333" opacity="1" x="0" text-anchor="start" y="12.5" textLength="102.62175750732422" style="font-family: Arial, Helvetica Neue, Helvetica, sans-serif;">Need to display</tspan><tspan xml:space="preserve" text-rendering="optimizeSpeed" font-size="13.88888888888889" font-weight="bold" font-style="normal" fill="#333333" opacity="1" x="12.369" text-anchor="start" y="28.125" textLength="74.07804107666016" style="font-family: Arial, Helvetica Neue, Helvetica, sans-serif;">permission</tspan><tspan xml:space="preserve" text-rendering="optimizeSpeed" font-size="13.88888888888889" font-weight="bold" font-style="normal" fill="#333333" opacity="1" x="18.159" text-anchor="start" y="43.75" textLength="66.35562133789062" style="font-family: Arial, Helvetica Neue, Helvetica, sans-serif;">rationale?</tspan></text></g></g><g width="150" height="75" transform="scale(1,1) translate(734.102,674.261)"><g stroke="#545454" opacity="1" stroke-width="1" stroke-dasharray="none" width="150" height="75" transform="scale(1,1) translate(0,0)" fill="#74cf37" fill-opacity="1" stroke-opacity="1" filter="url(#f578a3c6-5bc6-41a8-8f6a-c44d70277f60)"><rect width="150" height="75"/></g><g width="145" height="70" transform="scale(1,1) translate(2.5,2.5)"><text width="145" height="15.624999046325684" transform="scale(1,1) translate(0,27.187500476837158)" xml:space="preserve"><tspan xml:space="preserve" text-rendering="optimizeSpeed" font-size="13.88888888888889" font-weight="bold" font-style="normal" fill="#333333" opacity="1" x="15.155" text-anchor="start" y="12.5" textLength="114.69010162353516" style="font-family: Arial, Helvetica Neue, Helvetica, sans-serif;">Call Functionality</tspan></text></g></g><g width="23.94" height="15.625" transform="scale(1,1) translate(682.121,270.878)"><g stroke="#545454" opacity="1" stroke-width="0" stroke-dasharray="none" width="23.94" height="15.625" transform="scale(1,1) translate(0,0)" fill="none" stroke-opacity="1"><rect width="23.94" height="15.625"/></g><g width="23.940101623535156" height="15.624999046325684" transform="scale(1,1) translate(0,0)"><text width="23.940101623535156" height="15.624999046325684" transform="scale(1,1) translate(0,0)" xml:space="preserve"><tspan xml:space="preserve" text-rendering="optimizeSpeed" font-size="13.88888888888889" font-weight="bold" font-style="normal" fill="#333333" opacity="1" x="0" text-anchor="start" y="12.5" textLength="23.940101623535156" style="font-family: Arial, Helvetica Neue, Helvetica, sans-serif;">Yes</tspan></text></g></g><g width="129.151" height="367.671" transform="scale(1,1) translate(679.95,306.591)"><g transform="scale(1,1) translate(0,0)" fill="#545454" stroke="#545454" stroke-opacity="1" filter="url(#f9935239-35f3-445a-99f3-8b546ffe6517)"><path d="M 0 0 L 129.151 0 L 129.151 357.671" fill="none" stroke-width="1" stroke-dasharray="none"/><g><g stroke-dasharray="none"><path d="M134.151,357.671L129.151,367.671L124.151,357.671z" stroke="none" fill-opacity="1"/></g></g></g></g><g width="41.111" height="63.423" transform="scale(1,1) translate(399.901,306.591)"><g transform="scale(1,1) translate(0,0)" fill="#545454" stroke="#545454" stroke-opacity="1" filter="url(#f9935239-35f3-445a-99f3-8b546ffe6517)"><path d="M 41.111 0 L 0 0 L 0 53.423" fill="none" stroke-width="1" stroke-dasharray="none"/><g><g stroke-dasharray="none"><path d="M5,53.423L0,63.423L-5,53.423z" stroke="none" fill-opacity="1"/></g></g></g></g><g width="18.509" height="15.667" transform="scale(1,1) translate(418.546,268.687)"><g stroke="#545454" opacity="1" stroke-width="0" stroke-dasharray="none" width="18.509" height="15.667" transform="scale(1,1) translate(0,0)" fill="none" stroke-opacity="1"><rect width="18.509" height="15.667"/></g><g width="18.509355545043945" height="15.666666666666666" transform="scale(1,1) translate(0,0)"><text width="18.509355545043945" height="15.624999046325684" transform="scale(1,1) translate(0,0.02083381017049124)" xml:space="preserve"><tspan xml:space="preserve" text-rendering="optimizeSpeed" font-size="13.88888888888889" font-weight="bold" font-style="normal" fill="#333333" opacity="1" x="0" text-anchor="start" y="12.5" textLength="18.509355545043945" style="font-family: Arial, Helvetica Neue, Helvetica, sans-serif;">No</tspan></text></g></g><g width="150" height="75" transform="scale(1,1) translate(474.011,468.111)"><g transform="scale(1,1) translate(0,0)" stroke="#7F7F7F" fill="#B7DDE8" fill-opacity="1" stroke-opacity="1" filter="url(#f578a3c6-5bc6-41a8-8f6a-c44d70277f60)"><path d="M20,0 L150,0 L130,75 L0,75 L20,0 z" stroke-width="1" stroke-dasharray="none"/></g><g width="109.87229862475442" height="52.55402750491159" transform="scale(1,1) translate(20.064,11.223)"><text width="109.87229862475442" height="46.87499713897705" transform="scale(1,1) translate(0,2.8395151829672685)" xml:space="preserve"><tspan xml:space="preserve" text-rendering="optimizeSpeed" font-size="13.88888888888889" font-weight="bold" font-style="normal" fill="#333333" opacity="1" x="28.311" text-anchor="start" y="12.5" textLength="49.39213943481445" style="font-family: Arial, Helvetica Neue, Helvetica, sans-serif;">Display</tspan><tspan xml:space="preserve" text-rendering="optimizeSpeed" font-size="13.88888888888889" font-weight="bold" font-style="normal" fill="#333333" opacity="1" x="12.887" text-anchor="start" y="28.125" textLength="80.24103927612305" style="font-family: Arial, Helvetica Neue, Helvetica, sans-serif;">rationale for</tspan><tspan xml:space="preserve" text-rendering="optimizeSpeed" font-size="13.88888888888889" font-weight="bold" font-style="normal" fill="#333333" opacity="1" x="14.036" text-anchor="start" y="43.75" textLength="81.80043029785156" style="font-family: Arial, Helvetica Neue, Helvetica, sans-serif;">permissions</tspan></text></g></g><g width="45.936" height="46.51" transform="scale(1,1) translate(503.075,421.601)"><g transform="scale(1,1) translate(0,0)" fill="#545454" stroke="#545454" stroke-opacity="1" filter="url(#f9935239-35f3-445a-99f3-8b546ffe6517)"><path d="M 0 0 L 45.936 0 L 45.936 36.51" fill="none" stroke-width="1" stroke-dasharray="none"/><g><g stroke-dasharray="none"><path d="M50.936,36.51L45.936,46.51L40.936,36.51z" stroke="none" fill-opacity="1"/></g></g></g></g><g width="139.81" height="73.834" transform="scale(1,1) translate(409.201,543.111)"><g transform="scale(1,1) translate(0,0)" fill="#545454" stroke="#545454" stroke-opacity="1" filter="url(#f9935239-35f3-445a-99f3-8b546ffe6517)"><path d="M 139.81 0 L 139.81 25 L 0 25 L 0 63.834" fill="none" stroke-width="1" stroke-dasharray="none"/><g><g stroke-dasharray="none"><path d="M5,63.834L0,73.834L-5,63.834z" stroke="none" fill-opacity="1"/></g></g></g></g><g width="112.474" height="195.344" transform="scale(1,1) translate(296.727,421.601)"><g transform="scale(1,1) translate(0,0)" fill="#545454" stroke="#545454" stroke-opacity="1" filter="url(#f9935239-35f3-445a-99f3-8b546ffe6517)"><path d="M 0 0 L -25 0 L -25 147.25 L 112.474 147.25 L 112.474 185.344" fill="none" stroke-width="1" stroke-dasharray="none"/><g><g stroke-dasharray="none"><path d="M117.474,185.344L112.474,195.344L107.474,185.344z" stroke="none" fill-opacity="1"/></g></g></g></g><g width="23.94" height="15.625" transform="scale(1,1) translate(506.041,398.288)"><g stroke="#545454" opacity="1" stroke-width="0" stroke-dasharray="none" width="23.94" height="15.625" transform="scale(1,1) translate(0,0)" fill="none" stroke-opacity="1"><rect width="23.94" height="15.625"/></g><g width="23.940101623535156" height="15.624999046325684" transform="scale(1,1) translate(0,0)"><text width="23.940101623535156" height="15.624999046325684" transform="scale(1,1) translate(0,0)" xml:space="preserve"><tspan xml:space="preserve" text-rendering="optimizeSpeed" font-size="13.88888888888889" font-weight="bold" font-style="normal" fill="#333333" opacity="1" x="0" text-anchor="start" y="12.5" textLength="23.940101623535156" style="font-family: Arial, Helvetica Neue, Helvetica, sans-serif;">Yes</tspan></text></g></g><g width="18.509" height="15.625" transform="scale(1,1) translate(275.636,395.188)"><g stroke="#545454" opacity="1" stroke-width="0" stroke-dasharray="none" width="18.509" height="15.625" transform="scale(1,1) translate(0,0)" fill="none" stroke-opacity="1"><rect width="18.509" height="15.625"/></g><g width="18.509355545043945" height="15.624999046325684" transform="scale(1,1) translate(0,0)"><text width="18.509355545043945" height="15.624999046325684" transform="scale(1,1) translate(0,0)" xml:space="preserve"><tspan xml:space="preserve" text-rendering="optimizeSpeed" font-size="13.88888888888889" font-weight="bold" font-style="normal" fill="#333333" opacity="1" x="0" text-anchor="start" y="12.5" textLength="18.509355545043945" style="font-family: Arial, Helvetica Neue, Helvetica, sans-serif;">No</tspan></text></g></g><g width="200" height="100" transform="scale(1,1) translate(309.201,752.902)"><g transform="scale(1,1) translate(0,0)" stroke="#7F7F7F" fill="#FADA7A" fill-opacity="1" stroke-opacity="1" filter="url(#f578a3c6-5bc6-41a8-8f6a-c44d70277f60)"><path d="M100,0 L200,50 L100,100 L0,50 L100,0 z" stroke-width="1" stroke-dasharray="none"/></g><g width="99.5" height="49.5" transform="scale(1,1) translate(50.25,25.25)"><text width="99.5" height="46.87499713897705" transform="scale(1,1) translate(0,1.3125014305114746)" xml:space="preserve"><tspan xml:space="preserve" text-rendering="optimizeSpeed" font-size="13.88888888888889" font-weight="bold" font-style="normal" fill="#333333" opacity="1" x="7.701" text-anchor="start" y="12.5" textLength="80.24105072021484" style="font-family: Arial, Helvetica Neue, Helvetica, sans-serif;">Did the user</tspan><tspan xml:space="preserve" text-rendering="optimizeSpeed" font-size="13.88888888888889" font-weight="bold" font-style="normal" fill="#333333" opacity="1" x="30.464" text-anchor="start" y="28.125" textLength="34.7135009765625" style="font-family: Arial, Helvetica Neue, Helvetica, sans-serif;">grant</tspan><tspan xml:space="preserve" text-rendering="optimizeSpeed" font-size="13.88888888888889" font-weight="bold" font-style="normal" fill="#333333" opacity="1" x="8.47" text-anchor="start" y="43.75" textLength="82.5597915649414" style="font-family: Arial, Helvetica Neue, Helvetica, sans-serif;">permission?</tspan></text></g></g><g width="200" height="100" transform="scale(1,1) translate(184.891,174.75)"><g transform="scale(1,1) translate(0,0)" stroke="#7F7F7F" fill="#FADA7A" fill-opacity="1" stroke-opacity="1" filter="url(#f578a3c6-5bc6-41a8-8f6a-c44d70277f60)"><path d="M100,0 L200,50 L100,100 L0,50 L100,0 z" stroke-width="1" stroke-dasharray="none"/></g><g width="99.5" height="49.5" transform="scale(1,1) translate(50.25,25.25)"><text width="99.5" height="46.87499713897705" transform="scale(1,1) translate(0,1.3125014305114746)" xml:space="preserve"><tspan xml:space="preserve" text-rendering="optimizeSpeed" font-size="13.88888888888889" font-weight="bold" font-style="normal" fill="#333333" opacity="1" x="6.145" text-anchor="start" y="12.5" textLength="83.35302734375" style="font-family: Arial, Helvetica Neue, Helvetica, sans-serif;">Is the device</tspan><tspan xml:space="preserve" text-rendering="optimizeSpeed" font-size="13.88888888888889" font-weight="bold" font-style="normal" fill="#333333" opacity="1" x="22.244" text-anchor="start" y="28.125" textLength="51.67022705078125" style="font-family: Arial, Helvetica Neue, Helvetica, sans-serif;">running</tspan><tspan xml:space="preserve" text-rendering="optimizeSpeed" font-size="13.88888888888889" font-weight="bold" font-style="normal" fill="#333333" opacity="1" x="7.321" text-anchor="start" y="43.75" textLength="84.85820007324219" style="font-family: Arial, Helvetica Neue, Helvetica, sans-serif;">Android 6.0?</tspan></text></g></g><g width="90.65" height="444.241" transform="scale(1,1) translate(94.24,224.75)"><g transform="scale(1,1) translate(0,0)" fill="#545454" stroke="#545454" stroke-opacity="1" filter="url(#f9935239-35f3-445a-99f3-8b546ffe6517)"><path d="M 90.65 0 L 0 0 L 0 434.241" fill="none" stroke-width="1" stroke-dasharray="none"/><g><g stroke-dasharray="none"><path d="M5,434.241L0,444.241L-5,434.241z" stroke="none" fill-opacity="1"/></g></g></g></g><g width="175.591" height="22.106" transform="scale(1,1) translate(384.891,224.75)"><g transform="scale(1,1) translate(0,0)" fill="#545454" stroke="#545454" stroke-opacity="1" filter="url(#f9935239-35f3-445a-99f3-8b546ffe6517)"><path d="M 0 0 L 175.591 0 L 175.591 12.106" fill="none" stroke-width="1" stroke-dasharray="none"/><g><g stroke-dasharray="none"><path d="M180.591,12.106L175.591,22.106L170.591,12.106z" stroke="none" fill-opacity="1"/></g></g></g></g><g width="193.598" height="94.153" transform="scale(1,1) translate(312.402,616.945)"><g width="193.598" height="94.153" filter="url(#f578a3c6-5bc6-41a8-8f6a-c44d70277f60)"><g transform="scale(1.3413275443696535,1.3402583526485672) translate(0,0)"><g><g width="143" height="67.833" transform="scale(1,1) translate(0.667,0.667)"><g stroke="#7F7F7F" opacity="1" stroke-width="1.3333333333333333" stroke-dasharray="none" width="143" height="67.833" transform="scale(1,1) translate(0,0)" fill="#BFBFBF" fill-opacity="1" stroke-opacity="1"><rect width="143" height="67.833"/></g></g><g width="0" height="67.833" transform="scale(1,1) translate(9.167,0.667)"><g transform="scale(1,1) translate(0,0)" fill="#7F7F7F" stroke="#7F7F7F" stroke-opacity="1"><path d="M0,0 L0,67.833" fill="none" stroke-width="1" stroke-dasharray="none"/><g><g stroke-dasharray="none"><path d="M-1.167,-1.167L1.167,-1.167L1.167,1.167L-1.167,1.167z" stroke-width="0" fill="none"/></g></g></g></g><g width="0" height="67.833" transform="scale(1,1) translate(134.333,0.667)"><g transform="scale(1,1) translate(0,0)" fill="#7F7F7F" stroke="#7F7F7F" stroke-opacity="1"><path d="M0,0 L0,67.833" fill="none" stroke-width="1" stroke-dasharray="none"/><g><g stroke-dasharray="none"><path d="M-1.167,-1.167L1.167,-1.167L1.167,1.167L-1.167,1.167z" stroke-width="0" fill="none"/></g></g></g></g></g></g></g><g width="155.37548186826916" height="74.20891841096531" transform="scale(1,1) translate(16.685,8.393)"><text width="155.37548186826916" height="62.499996185302734" transform="scale(1,1) translate(0,5.854461112831288)" xml:space="preserve"><tspan xml:space="preserve" text-rendering="optimizeSpeed" font-size="13.88888888888889" font-weight="bold" font-style="normal" fill="#333333" opacity="1" x="50.683" text-anchor="start" y="12.5" textLength="50.151493072509766" style="font-family: Arial, Helvetica Neue, Helvetica, sans-serif;">Call the</tspan><tspan xml:space="preserve" text-rendering="optimizeSpeed" font-size="13.88888888888889" font-weight="bold" font-style="normal" fill="#333333" opacity="1" x="7.078" text-anchor="start" y="28.125" textLength="137.36237716674805" style="font-family: Arial, Helvetica Neue, Helvetica, sans-serif;">RequestPermissions</tspan><tspan xml:space="preserve" text-rendering="optimizeSpeed" font-size="13.88888888888889" font-weight="bold" font-style="normal" fill="#333333" opacity="1" x="1.969" text-anchor="start" y="43.75" textLength="147.57969665527344" style="font-family: Arial, Helvetica Neue, Helvetica, sans-serif;">method in the Android</tspan><tspan xml:space="preserve" text-rendering="optimizeSpeed" font-size="13.88888888888889" font-weight="bold" font-style="normal" fill="#333333" opacity="1" x="63.029" text-anchor="start" y="59.375" textLength="29.316619873046875" style="font-family: Arial, Helvetica Neue, Helvetica, sans-serif;">SDK</tspan></text></g></g><g width="1" height="41.804" transform="scale(1,1) translate(409.201,711.098)"><g transform="scale(1,1) translate(0,0)" fill="#545454" stroke="#545454" stroke-opacity="1" filter="url(#f9935239-35f3-445a-99f3-8b546ffe6517)"><path d="M 0 0 L 0 31.804" fill="none" stroke-width="1" stroke-dasharray="none"/><g><g stroke-dasharray="none"><path d="M5,31.804L0,41.804L-5,31.804z" stroke="none" fill-opacity="1"/></g></g></g></g><g width="150" height="75" transform="scale(1,1) translate(482.381,892.812)"><g stroke="#545454" opacity="1" stroke-width="1" stroke-dasharray="none" width="150" height="75" transform="scale(1,1) translate(0,0)" fill="#74cf37" fill-opacity="1" stroke-opacity="1" filter="url(#f578a3c6-5bc6-41a8-8f6a-c44d70277f60)"><rect width="150" height="75"/></g><g width="145" height="70" transform="scale(1,1) translate(2.5,2.5)"><text width="145" height="15.624999046325684" transform="scale(1,1) translate(0,27.187500476837158)" xml:space="preserve"><tspan xml:space="preserve" text-rendering="optimizeSpeed" font-size="13.88888888888889" font-weight="bold" font-style="normal" fill="#333333" opacity="1" x="15.155" text-anchor="start" y="12.5" textLength="114.69010162353516" style="font-family: Arial, Helvetica Neue, Helvetica, sans-serif;">Call Functionality</tspan></text></g></g><g width="150" height="75" transform="scale(1,1) translate(200.591,898.082)"><g stroke="#7F7F7F" opacity="1" stroke-width="1" stroke-dasharray="none" width="150" height="75" transform="scale(1,1) translate(0,0)" fill="#D99694" fill-opacity="1" stroke-opacity="1" filter="url(#f578a3c6-5bc6-41a8-8f6a-c44d70277f60)"><rect width="150" height="75"/></g><g width="145" height="70" transform="scale(1,1) translate(2.5,2.5)"><text width="145" height="62.499996185302734" transform="scale(1,1) translate(0,3.750001907348633)" xml:space="preserve"><tspan xml:space="preserve" text-rendering="optimizeSpeed" font-size="13.88888888888889" font-weight="bold" font-style="normal" fill="#333333" opacity="1" x="2.676" text-anchor="start" y="12.5" textLength="135.7893829345703" style="font-family: Arial, Helvetica Neue, Helvetica, sans-serif;">Disable functionality</tspan><tspan xml:space="preserve" text-rendering="optimizeSpeed" font-size="13.88888888888889" font-weight="bold" font-style="normal" fill="#333333" opacity="1" x="18.867" text-anchor="start" y="28.125" textLength="103.40818786621094" style="font-family: Arial, Helvetica Neue, Helvetica, sans-serif;">or use alternate</tspan><tspan xml:space="preserve" text-rendering="optimizeSpeed" font-size="13.88888888888889" font-weight="bold" font-style="normal" fill="#333333" opacity="1" x="13.846" text-anchor="start" y="43.75" textLength="113.4493408203125" style="font-family: Arial, Helvetica Neue, Helvetica, sans-serif;">means to replace</tspan><tspan xml:space="preserve" text-rendering="optimizeSpeed" font-size="13.88888888888889" font-weight="bold" font-style="normal" fill="#333333" opacity="1" x="5.368" text-anchor="start" y="59.375" textLength="134.26385498046875" style="font-family: Arial, Helvetica Neue, Helvetica, sans-serif;">denied permissions.</tspan></text></g></g><g width="33.61" height="95.18" transform="scale(1,1) translate(275.591,802.902)"><g transform="scale(1,1) translate(0,0)" fill="#545454" stroke="#545454" stroke-opacity="1" filter="url(#f9935239-35f3-445a-99f3-8b546ffe6517)"><path d="M 33.61 0 L 0 0 L 0 85.18" fill="none" stroke-width="1" stroke-dasharray="none"/><g><g stroke-dasharray="none"><path d="M5,85.18L0,95.18L-5,85.18z" stroke="none" fill-opacity="1"/></g></g></g></g><g width="48.18" height="89.91" transform="scale(1,1) translate(509.201,802.902)"><g transform="scale(1,1) translate(0,0)" fill="#545454" stroke="#545454" stroke-opacity="1" filter="url(#f9935239-35f3-445a-99f3-8b546ffe6517)"><path d="M 0 0 L 48.18 0 L 48.18 79.91" fill="none" stroke-width="1" stroke-dasharray="none"/><g><g stroke-dasharray="none"><path d="M53.18,79.91L48.18,89.91L43.18,79.91z" stroke="none" fill-opacity="1"/></g></g></g></g><g width="23.94" height="15.625" transform="scale(1,1) translate(515.341,779.589)"><g stroke="#545454" opacity="1" stroke-width="0" stroke-dasharray="none" width="23.94" height="15.625" transform="scale(1,1) translate(0,0)" fill="none" stroke-opacity="1"><rect width="23.94" height="15.625"/></g><g width="23.940101623535156" height="15.624999046325684" transform="scale(1,1) translate(0,0)"><text width="23.940101623535156" height="15.624999046325684" transform="scale(1,1) translate(0,0)" xml:space="preserve"><tspan xml:space="preserve" text-rendering="optimizeSpeed" font-size="13.88888888888889" font-weight="bold" font-style="normal" fill="#333333" opacity="1" x="0" text-anchor="start" y="12.5" textLength="23.940101623535156" style="font-family: Arial, Helvetica Neue, Helvetica, sans-serif;">Yes</tspan></text></g></g><g width="18.509" height="15.625" transform="scale(1,1) translate(284.936,776.489)"><g stroke="#545454" opacity="1" stroke-width="0" stroke-dasharray="none" width="18.509" height="15.625" transform="scale(1,1) translate(0,0)" fill="none" stroke-opacity="1"><rect width="18.509" height="15.625"/></g><g width="18.509355545043945" height="15.624999046325684" transform="scale(1,1) translate(0,0)"><text width="18.509355545043945" height="15.624999046325684" transform="scale(1,1) translate(0,0)" xml:space="preserve"><tspan xml:space="preserve" text-rendering="optimizeSpeed" font-size="13.88888888888889" font-weight="bold" font-style="normal" fill="#333333" opacity="1" x="0" text-anchor="start" y="12.5" textLength="18.509355545043945" style="font-family: Arial, Helvetica Neue, Helvetica, sans-serif;">No</tspan></text></g></g><g width="150" height="75" transform="scale(1,1) translate(212.991,1253.343)"><g transform="scale(1,1) translate(0,0)" stroke="#545454" fill="url(#90bae80e-b1b8-43ba-9581-7466ad2967bf)" stroke-opacity="1" filter="url(#f578a3c6-5bc6-41a8-8f6a-c44d70277f60)"><linearGradient id="90bae80e-b1b8-43ba-9581-7466ad2967bf" x1="75" y1="0" x2="75" y2="75" gradientUnits="userSpaceOnUse"><stop offset="0%" style="stop-color:#DED5B7;stop-opacity:1;"/><stop offset="100%" style="stop-color:#D6CBA6;stop-opacity:1;"/></linearGradient><path d="M37,0 L28.675,0.949 L25.303,1.897 L22.769,2.846 L20.678,3.795 L18.875,4.744 L17.281,5.692 L15.85,6.641 L14.549,7.59 L13.358,8.538 L12.26,9.487 L11.244,10.436 L10.301,11.385 L9.422,12.333 L8.602,13.282 L7.836,14.231 L7.119,15.179 L6.449,16.128 L5.822,17.077 L5.236,18.026 L4.688,18.974 L4.177,19.923 L3.7,20.872 L3.257,21.821 L2.846,22.769 L2.466,23.718 L2.116,24.667 L1.795,25.615 L1.502,26.564 L1.237,27.513 L0.999,28.462 L0.787,29.41 L0.601,30.359 L0.44,31.308 L0.305,32.256 L0.195,33.205 L0.11,34.154 L0.049,35.103 L0.012,36.051 L0,37 L0,38 L0.012,38.949 L0.049,39.897 L0.11,40.846 L0.195,41.795 L0.305,42.744 L0.44,43.692 L0.601,44.641 L0.787,45.59 L0.999,46.538 L1.237,47.487 L1.502,48.436 L1.795,49.385 L2.116,50.333 L2.466,51.282 L2.846,52.231 L3.257,53.179 L3.7,54.128 L4.177,55.077 L4.688,56.026 L5.236,56.974 L5.822,57.923 L6.449,58.872 L7.119,59.821 L7.836,60.769 L8.602,61.718 L9.422,62.667 L10.301,63.615 L11.244,64.564 L12.26,65.513 L13.358,66.462 L14.549,67.41 L15.85,68.359 L17.281,69.308 L18.875,70.256 L20.678,71.205 L22.769,72.154 L25.303,73.103 L28.675,74.051 L37,75 L113,75 L121.325,74.051 L124.697,73.103 L127.231,72.154 L129.322,71.205 L131.125,70.256 L132.719,69.308 L134.15,68.359 L135.451,67.41 L136.642,66.462 L137.74,65.513 L138.756,64.564 L139.699,63.615 L140.578,62.667 L141.398,61.718 L142.164,60.769 L142.881,59.821 L143.551,58.872 L144.178,57.923 L144.764,56.974 L145.312,56.026 L145.823,55.077 L146.3,54.128 L146.743,53.179 L147.154,52.231 L147.534,51.282 L147.884,50.333 L148.205,49.385 L148.498,48.436 L148.763,47.487 L149.001,46.538 L149.213,45.59 L149.399,44.641 L149.56,43.692 L149.695,42.744 L149.805,41.795 L149.89,40.846 L149.951,39.897 L149.988,38.949 L150,38 L150,37 L149.988,36.051 L149.951,35.103 L149.89,34.154 L149.805,33.205 L149.695,32.256 L149.56,31.308 L149.399,30.359 L149.213,29.41 L149.001,28.462 L148.763,27.513 L148.498,26.564 L148.205,25.615 L147.884,24.667 L147.534,23.718 L147.154,22.769 L146.743,21.821 L146.3,20.872 L145.823,19.923 L145.312,18.974 L144.764,18.026 L144.178,17.077 L143.551,16.128 L142.881,15.179 L142.164,14.231 L141.398,13.282 L140.578,12.333 L139.699,11.385 L138.756,10.436 L137.74,9.487 L136.642,8.538 L135.451,7.59 L134.15,6.641 L132.719,5.692 L131.125,4.744 L129.322,3.795 L127.231,2.846 L124.697,1.897 L121.325,0.949 L113,0 L37,0 z" stroke-width="1" stroke-dasharray="none"/></g><g width="101.358910518" height="48.325901868" transform="scale(1,1) translate(24.321,13.337)"><text width="101.358910518" height="46.87499713897705" transform="scale(1,1) translate(0,0.7254523645114759)" xml:space="preserve"><tspan xml:space="preserve" text-rendering="optimizeSpeed" font-size="13.88888888888889" font-weight="normal" font-style="normal" fill="#333333" opacity="1" x="20.587" text-anchor="start" y="12.5" textLength="56.32805252075195" style="font-family: Arial, Helvetica Neue, Helvetica, sans-serif;">Run-time</tspan><tspan xml:space="preserve" text-rendering="optimizeSpeed" font-size="13.88888888888889" font-weight="normal" font-style="normal" fill="#333333" opacity="1" x="15.183" text-anchor="start" y="28.125" textLength="67.13535690307617" style="font-family: Arial, Helvetica Neue, Helvetica, sans-serif;">permission</tspan><tspan xml:space="preserve" text-rendering="optimizeSpeed" font-size="13.88888888888889" font-weight="normal" font-style="normal" fill="#333333" opacity="1" x="2.443" text-anchor="start" y="43.75" textLength="96.47233581542969" style="font-family: Arial, Helvetica Neue, Helvetica, sans-serif;">check complete</tspan></text></g></g><g width="32.24" height="32.24" transform="scale(1,1) translate(402.381,989.832)"><g width="32.24" height="32.24" transform="scale(1,1) translate(0,0)" stroke="#7F7F7F" stroke-width="1" stroke-dasharray="none" fill="#ffffff" fill-opacity="1" stroke-opacity="1" filter="url(#7ed8460f-c31a-4618-b169-5f8c8b48f207)"><ellipse rx="16.12" ry="16.12" cx="16.12" cy="16.12"/></g></g><g width="122.76" height="38.14" transform="scale(1,1) translate(434.621,967.812)"><g transform="scale(1,1) translate(0,0)" fill="#545454" stroke="#545454" stroke-opacity="1" filter="url(#f9935239-35f3-445a-99f3-8b546ffe6517)"><path d="M 122.76 0 L 122.76 38.14 L 10 38.14" fill="none" stroke-width="1" stroke-dasharray="none"/><g><g stroke-dasharray="none"><path d="M10,43.14L0,38.14L10,33.14z" stroke="none" fill-opacity="1"/></g></g></g></g><g width="126.79" height="32.87" transform="scale(1,1) translate(275.591,973.082)"><g transform="scale(1,1) translate(0,0)" fill="#545454" stroke="#545454" stroke-opacity="1" filter="url(#f9935239-35f3-445a-99f3-8b546ffe6517)"><path d="M 0 0 L 0 32.87 L 116.79 32.87" fill="none" stroke-width="1" stroke-dasharray="none"/><g><g stroke-dasharray="none"><path d="M116.79,27.87L126.79,32.87L116.79,37.87z" stroke="none" fill-opacity="1"/></g></g></g></g><g width="32.333" height="32.167" transform="scale(1,1) translate(504.944,1044.739)"><g width="32.333" height="32.167" transform="scale(1,1) translate(0,0)" stroke="#7F7F7F" stroke-width="1" stroke-dasharray="none" fill="#FFFFFF" fill-opacity="1" stroke-opacity="1" filter="url(#84b71f79-4f7d-40e1-8b07-a5bcf1ba5f8b)"><ellipse rx="16.1665" ry="16.0835" cx="16.1665" cy="16.0835"/></g></g><g width="93.653" height="40.452" transform="scale(1,1) translate(411.292,1020.37)"><g transform="scale(1,1) translate(0,0)" fill="#545454" stroke="#545454" stroke-opacity="1" filter="url(#f9935239-35f3-445a-99f3-8b546ffe6517)"><path d="M 0 0 L 0 40.452 L 83.653 40.452" fill="none" stroke-width="1" stroke-dasharray="none"/><g><g stroke-dasharray="none"><path d="M83.653,35.452L93.653,40.452L83.653,45.452z" stroke="none" fill-opacity="1"/></g></g></g></g><g width="32.333" height="32.167" transform="scale(1,1) translate(271.824,1120.379)"><g width="32.333" height="32.167" transform="scale(1,1) translate(0,0)" stroke="#7F7F7F" stroke-width="1" stroke-dasharray="none" fill="#FFFFFF" fill-opacity="1" stroke-opacity="1" filter="url(#84b71f79-4f7d-40e1-8b07-a5bcf1ba5f8b)"><ellipse rx="16.1665" ry="16.0835" cx="16.1665" cy="16.0835"/></g></g><g width="224.184" height="61.255" transform="scale(1,1) translate(304.157,1075.207)"><g transform="scale(1,1) translate(0,0)" fill="#545454" stroke="#545454" stroke-opacity="1" filter="url(#f9935239-35f3-445a-99f3-8b546ffe6517)"><path d="M 224.184 0 L 224.184 61.255 L 10 61.255" fill="none" stroke-width="1" stroke-dasharray="none"/><g><g stroke-dasharray="none"><path d="M10,66.255L0,61.255L10,56.255z" stroke="none" fill-opacity="1"/></g></g></g></g><g width="177.584" height="392.471" transform="scale(1,1) translate(94.24,743.991)"><g transform="scale(1,1) translate(0,0)" fill="#545454" stroke="#545454" stroke-opacity="1" filter="url(#f9935239-35f3-445a-99f3-8b546ffe6517)"><path d="M 0 0 L 0 392.471 L 167.584 392.471" fill="none" stroke-width="1" stroke-dasharray="none"/><g><g stroke-dasharray="none"><path d="M167.584,387.471L177.584,392.471L167.584,397.471z" stroke="none" fill-opacity="1"/></g></g></g></g><g width="271.824" height="311.561" transform="scale(1,1) translate(537.278,749.261)"><g transform="scale(1,1) translate(0,0)" fill="#545454" stroke="#545454" stroke-opacity="1" filter="url(#f9935239-35f3-445a-99f3-8b546ffe6517)"><path d="M 271.824 0 L 271.824 311.561 L 10 311.561" fill="none" stroke-width="1" stroke-dasharray="none"/><g><g stroke-dasharray="none"><path d="M10,316.561L0,311.561L10,306.561z" stroke="none" fill-opacity="1"/></g></g></g></g><g width="1" height="100.797" transform="scale(1,1) translate(287.991,1152.546)"><g transform="scale(1,1) translate(0,0)" fill="#545454" stroke="#545454" stroke-opacity="1" filter="url(#f9935239-35f3-445a-99f3-8b546ffe6517)"><path d="M 0 0 L 0 90.797" fill="none" stroke-width="1" stroke-dasharray="none"/><g><g stroke-dasharray="none"><path d="M5,90.797L0,100.797L-5,90.797z" stroke="none" fill-opacity="1"/></g></g></g></g></g></svg>